<svg width="25" height="30" viewBox="0 0 25 30" fill="none" xmlns="http://www.w3.org/2000/svg">
<path d="M23.418 10.9808H22.74V7.70981C22.7394 7.68903 22.7374 7.66831 22.734 7.64781C22.7349 7.51641 22.688 7.38915 22.602 7.28981L17.16 1.07281L17.156 1.06881C17.1234 1.03361 17.0864 1.00269 17.046 0.976812L17.01 0.954812C16.9754 0.93559 16.9389 0.920167 16.901 0.908812L16.871 0.898812C16.8295 0.888453 16.7868 0.883082 16.744 0.882812H3.367C2.756 0.882812 2.26 1.37981 2.26 1.98981V10.9798H1.582C0.708 10.9798 0 11.6878 0 12.5618V20.7898C0 21.6628 0.709 22.3718 1.582 22.3718H2.26V28.0038C2.26 28.6138 2.756 29.1108 3.367 29.1108H21.633C22.243 29.1108 22.74 28.6138 22.74 28.0038V22.3718H23.418C24.291 22.3718 25 21.6638 25 20.7898V12.5618C25 11.6888 24.292 10.9808 23.418 10.9808ZM3.367 1.98981H16.19V7.65381C16.19 7.95981 16.438 8.20681 16.744 8.20681H21.634V10.9798H3.367V1.98981ZM11.649 17.1578C10.305 16.6778 9.418 15.9338 9.418 14.7588C9.418 13.3798 10.582 12.3368 12.477 12.3368C13.401 12.3368 14.06 12.5168 14.54 12.7438L14.132 14.2068C13.6091 13.9521 13.0346 13.8211 12.453 13.8238C11.661 13.8238 11.277 14.1948 11.277 14.6028C11.277 15.1188 11.72 15.3458 12.776 15.7418C14.204 16.2698 14.863 17.0128 14.863 18.1528C14.863 19.5088 13.832 20.6598 11.613 20.6598C10.689 20.6598 9.778 20.4078 9.322 20.1558L9.694 18.6568C10.3219 18.9774 11.015 19.1498 11.72 19.1608C12.56 19.1608 13.004 18.8118 13.004 18.2848C13.004 17.7808 12.621 17.4938 11.649 17.1578ZM2.123 16.6058C2.123 13.8588 4.09 12.3358 6.536 12.3358C7.484 12.3358 8.203 12.5268 8.527 12.6838L8.143 14.1348C7.65725 13.9308 7.1348 13.8287 6.608 13.8348C5.169 13.8348 4.042 14.7098 4.042 16.5088C4.042 18.1158 5.001 19.1358 6.62 19.1358C7.184 19.1358 7.784 19.0288 8.155 18.8718L8.42 20.3108C8.096 20.4658 7.328 20.6588 6.357 20.6588C3.562 20.6598 2.123 18.9088 2.123 16.6058ZM21.633 27.7058H3.367V22.3728H21.633V27.7058ZM20.155 20.5398H18.02L15.43 12.4558H17.433L18.416 15.8748C18.691 16.8458 18.943 17.7578 19.135 18.7648H19.171C19.3755 17.8039 19.6194 16.8517 19.902 15.9108L20.934 12.4568H22.876L20.155 20.5398Z" fill="#FF0000"/>
</svg>