<svg width="56" height="56" viewBox="0 0 56 56" fill="none" xmlns="http://www.w3.org/2000/svg">
<circle cx="28" cy="28" r="28" fill="url(#paint0_linear_655_3774)"/>
<g clip-path="url(#clip0_655_3774)">
<path d="M39.6673 20.042L26.3557 33.3654L21.409 28.4187L23.054 26.7737L26.3557 30.0754L38.0223 18.4087L39.6673 20.042ZM28.0007 37.332C22.8557 37.332 18.6673 33.1437 18.6673 27.9987C18.6673 22.8537 22.8557 18.6654 28.0007 18.6654C29.8323 18.6654 31.5473 19.202 32.994 20.1237L34.6856 18.432C32.784 17.1137 30.4857 16.332 28.0007 16.332C21.5607 16.332 16.334 21.5587 16.334 27.9987C16.334 34.4387 21.5607 39.6654 28.0007 39.6654C30.019 39.6654 31.9207 39.152 33.5773 38.242L31.8273 36.492C30.6607 37.0287 29.3657 37.332 28.0007 37.332ZM36.1673 31.4987H32.6673V33.832H36.1673V37.332H38.5007V33.832H42.0007V31.4987H38.5007V27.9987H36.1673V31.4987Z" fill="white"/>
</g>
<defs>
<linearGradient id="paint0_linear_655_3774" x1="0" y1="28" x2="56" y2="28" gradientUnits="userSpaceOnUse">
<stop stop-color="#4481EB"/>
<stop offset="1" stop-color="#04BEFE"/>
</linearGradient>
<clipPath id="clip0_655_3774">
<rect width="28" height="28" fill="white" transform="translate(14 14)"/>
</clipPath>
</defs>
</svg>
