<svg width="24" height="25"    viewBox="0 0 24 25" fill="none" xmlns="http://www.w3.org/2000/svg">
<path fill-rule="evenodd" clip-rule="evenodd" d="M13.0459 2.67431C12.4041 2.28044 11.5955 2.28044 10.9537 2.67431L4.82987 6.43249C3.54558 7.22065 3.56114 9.09212 4.85834 9.85883L11.0051 13.4918C11.6342 13.8637 12.416 13.8628 13.0442 13.4896L19.1523 9.86094C20.4461 9.09233 20.4595 7.22401 19.1769 6.43688L13.0459 2.67431ZM19.6029 11.5526C20.083 11.2783 20.6935 11.4472 20.9663 11.9299C21.2197 12.3781 21.0929 12.9392 20.6891 13.2367L20.591 13.3005L13.9964 17.0674C13.1667 17.5457 12.154 17.5786 11.2962 17.1643L11.1148 17.0686L4.59803 13.2977C4.11938 13.0207 3.95472 12.4062 4.23026 11.925C4.48611 11.4783 5.03154 11.3036 5.49138 11.5027L5.59581 11.5553L12.1092 15.3243C12.3495 15.4621 12.6426 15.479 12.898 15.374L13.005 15.3214L19.6029 11.5526ZM19.5059 15.2315C19.9861 14.9572 20.5965 15.1261 20.8694 15.6088C21.1228 16.057 20.996 16.6181 20.5921 16.9156L20.494 16.9794L13.8995 20.7464C13.0697 21.2246 12.057 21.2575 11.1992 20.8432L11.0179 20.7476L4.50107 16.9766C4.02242 16.6997 3.85777 16.0851 4.1333 15.604C4.38915 15.1572 4.93458 14.9826 5.39443 15.1817L5.49886 15.2343L12.0123 19.0033C12.2525 19.141 12.5456 19.158 12.8011 19.0529L12.908 19.0004L19.5059 15.2315Z" fill="#7D8592"/>
</svg>
