<svg width="25" height="24" viewBox="0 0 25 24" fill="none" xmlns="http://www.w3.org/2000/svg">
<path fill-rule="evenodd" clip-rule="evenodd" d="M21.2031 2C21.716 2 22.1386 2.38604 22.1964 2.88338L22.2031 3V21C22.2031 21.5128 21.8171 21.9355 21.3197 21.9933L21.2031 22H15.2031C14.6508 22 14.2031 21.5523 14.2031 21C14.2031 20.4872 14.5892 20.0645 15.0865 20.0067L15.2031 20H20.2031V4H15.2031C14.6903 4 14.2676 3.61396 14.2099 3.11662L14.2031 3C14.2031 2.48716 14.5892 2.06449 15.0865 2.00673L15.2031 2H21.2031ZM10.816 6.2097L10.9102 6.29289L15.9102 11.2929C16.2707 11.6534 16.2984 12.2206 15.9934 12.6129L15.9102 12.7071L10.9102 17.7071C10.5197 18.0976 9.88654 18.0976 9.49602 17.7071C9.13553 17.3466 9.1078 16.7794 9.41283 16.3871L9.49602 16.2929L12.7881 13H3.20312C2.65084 13 2.20312 12.5523 2.20312 12C2.20312 11.4872 2.58917 11.0645 3.0865 11.0067L3.20312 11H12.7881L9.49602 7.70711C9.13553 7.34662 9.1078 6.77939 9.41283 6.3871L9.49602 6.29289C9.82646 5.96245 10.3306 5.91161 10.7145 6.14038L10.816 6.2097Z" fill="#0A1629"/>
</svg>
