<svg width="27" height="28" viewBox="0 0 27 28" fill="none" xmlns="http://www.w3.org/2000/svg">
<path fill-rule="evenodd" clip-rule="evenodd" d="M14.6576 0.395822C14.0121 -0.0043372 13.1956 -0.00433612 12.5501 0.395823L1.78999 7.06601C0.515916 7.85581 0.531435 9.71471 1.81852 10.4831L12.6133 16.9278C13.2462 17.3057 14.0356 17.3048 14.6676 16.9255L25.4001 10.4852C26.6837 9.7149 26.6972 7.85916 25.4248 7.07039L14.6576 0.395822ZM24.7103 13.7905C25.4117 13.3858 26.3035 13.6351 26.7021 14.3473C27.0722 15.0086 26.8869 15.8366 26.297 16.2755L26.1537 16.3697L16.5205 21.928C15.3084 22.6337 13.8291 22.6823 12.576 22.0709L12.3111 21.9298L2.79146 16.3656C2.09226 15.9569 1.85173 15.0501 2.25423 14.3401C2.62797 13.6809 3.42473 13.4232 4.09646 13.717L4.24901 13.7946L13.7637 19.3559C14.1147 19.5592 14.5428 19.5842 14.916 19.4292L15.0722 19.3517L24.7103 13.7905ZM24.5684 19.2183C25.2698 18.8135 26.1616 19.0628 26.5602 19.775C26.9303 20.4364 26.7451 21.2643 26.1551 21.7033L26.0119 21.7974L16.3786 27.3557C15.1665 28.0614 13.6872 28.11 12.4341 27.4986L12.1692 27.3575L2.64958 21.7933C1.95038 21.3846 1.70986 20.4778 2.11235 19.7679C2.48609 19.1086 3.28285 18.851 3.95459 19.1447L4.10713 19.2224L13.6218 24.7837C13.9728 24.987 14.4009 25.012 14.7741 24.8569L14.9303 24.7794L24.5684 19.2183Z" fill="#0A1629"/>
</svg>
