<svg width="35" height="36" viewBox="0 0 35 36" fill="none" xmlns="http://www.w3.org/2000/svg">
<g filter="url(#filter0_d_1260_1597)">
<path fill-rule="evenodd" clip-rule="evenodd" d="M18.6576 0.395822C18.0121 -0.0043372 17.1956 -0.00433612 16.5501 0.395823L5.78999 7.06601C4.51592 7.85581 4.53143 9.71471 5.81852 10.4831L16.6133 16.9278C17.2462 17.3057 18.0356 17.3048 18.6676 16.9255L29.4001 10.4852C30.6837 9.7149 30.6972 7.85916 29.4248 7.07039L18.6576 0.395822ZM28.7103 13.7905C29.4117 13.3858 30.3035 13.6351 30.7021 14.3473C31.0722 15.0086 30.8869 15.8366 30.297 16.2755L30.1537 16.3697L20.5205 21.928C19.3084 22.6337 17.8291 22.6823 16.576 22.0709L16.3111 21.9298L6.79146 16.3656C6.09226 15.9569 5.85173 15.0501 6.25423 14.3401C6.62797 13.6809 7.42473 13.4232 8.09646 13.717L8.24901 13.7946L17.7637 19.3559C18.1147 19.5592 18.5428 19.5842 18.916 19.4292L19.0722 19.3517L28.7103 13.7905ZM28.5684 19.2183C29.2698 18.8135 30.1616 19.0628 30.5602 19.775C30.9303 20.4364 30.7451 21.2643 30.1551 21.7033L30.0119 21.7974L20.3786 27.3557C19.1665 28.0614 17.6872 28.11 16.4341 27.4986L16.1692 27.3575L6.64958 21.7933C5.95038 21.3846 5.70986 20.4778 6.11235 19.7679C6.48609 19.1086 7.28285 18.851 7.95459 19.1447L8.10713 19.2224L17.6218 24.7837C17.9728 24.987 18.4009 25.012 18.7741 24.8569L18.9303 24.7794L28.5684 19.2183Z" fill="white"/>
</g>
<defs>
<filter id="filter0_d_1260_1597" x="0.84375" y="0.0957031" width="34.0469" height="35.8281" filterUnits="userSpaceOnUse" color-interpolation-filters="sRGB">
<feFlood flood-opacity="0" result="BackgroundImageFix"/>
<feColorMatrix in="SourceAlpha" type="matrix" values="0 0 0 0 0 0 0 0 0 0 0 0 0 0 0 0 0 0 127 0" result="hardAlpha"/>
<feOffset dy="4"/>
<feGaussianBlur stdDeviation="2"/>
<feComposite in2="hardAlpha" operator="out"/>
<feColorMatrix type="matrix" values="0 0 0 0 0 0 0 0 0 0 0 0 0 0 0 0 0 0 0.25 0"/>
<feBlend mode="normal" in2="BackgroundImageFix" result="effect1_dropShadow_1260_1597"/>
<feBlend mode="normal" in="SourceGraphic" in2="effect1_dropShadow_1260_1597" result="shape"/>
</filter>
</defs>
</svg>
