<svg width="21" height="22" viewBox="0 0 21 22" fill="none" xmlns="http://www.w3.org/2000/svg">
<path fill-rule="evenodd" clip-rule="evenodd" d="M13.5066 8.42237L13.4969 3.60826C13.4974 1.94167 12.1559 0.590302 10.5007 0.589882C8.84552 0.589463 7.50339 1.94015 7.50297 3.60674L7.49337 8.42237L1.09624 11.6628C0.423808 12.0034 0 12.6932 0 13.447V14.4712C0 15.0933 0.562 15.5644 1.17457 15.4558L7.49245 14.3357V16.875L6.44951 18.1426C6.15499 18.5006 5.99396 18.9498 5.99396 19.4133V20.4642C5.99396 21.1002 6.57991 21.5747 7.20202 21.4423L10.5007 20.7407L13.7759 21.4408C14.3982 21.5739 14.9849 21.0994 14.9849 20.4629V19.4065C14.9849 18.9471 14.8268 18.5017 14.5371 18.1452L13.5075 16.8782V14.3357L19.8254 15.4558C20.438 15.5644 21 15.0933 21 14.4712V13.447C21 12.6932 20.5762 12.0034 19.9038 11.6628L13.5066 8.42237Z" fill="#7D8592"/>
</svg>
