<svg width="20" height="20" viewBox="0 0 20 20" fill="none" xmlns="http://www.w3.org/2000/svg">
<path d="M2.2849 6.3137H2.55858C3.61226 6.3137 4.47435 7.17579 4.47435 8.22946V17.8083C4.47435 18.862 3.61226 19.724 2.55858 19.724H2.2849C1.23123 19.724 0.369141 18.862 0.369141 17.8083V8.22946C0.369141 7.17579 1.23123 6.3137 2.2849 6.3137ZM9.94796 0.566406C11.0016 0.566406 11.8637 1.4285 11.8637 2.48217V17.8083C11.8637 18.862 11.0016 19.724 9.94796 19.724C8.89429 19.724 8.0322 18.862 8.0322 17.8083V2.48217C8.0322 1.4285 8.89429 0.566406 9.94796 0.566406ZM17.611 11.5136C18.6647 11.5136 19.5268 12.3757 19.5268 13.4294V17.8083C19.5268 18.862 18.6647 19.724 17.611 19.724C16.5573 19.724 15.6953 18.862 15.6953 17.8083V13.4294C15.6953 12.3757 16.5573 11.5136 17.611 11.5136Z" fill="#4318FF"/>
</svg>
