<svg width="10" height="19" viewBox="0 0 10 19" fill="none" xmlns="http://www.w3.org/2000/svg">
<path d="M5.3 8.33889C3.03 7.71611 2.3 7.07222 2.3 6.06944C2.3 4.91889 3.31 4.11667 5 4.11667C6.42 4.11667 7.13 4.68667 7.39 5.59444C7.51 6.01667 7.84 6.33333 8.26 6.33333H8.56C9.22 6.33333 9.69 5.64722 9.46 4.99278C9.04 3.74722 8.06 2.71278 6.5 2.31167V1.58333C6.5 0.707222 5.83 0 5 0C4.17 0 3.5 0.707222 3.5 1.58333V2.28C1.56 2.72333 0 4.05333 0 6.09056C0 8.52889 1.91 9.74278 4.7 10.45C7.2 11.0833 7.7 12.0122 7.7 12.9939C7.7 13.7222 7.21 14.8833 5 14.8833C3.35 14.8833 2.5 14.2606 2.17 13.3739C2.02 12.9622 1.68 12.6667 1.27 12.6667H0.99C0.32 12.6667 -0.15 13.3844 0.0999999 14.0389C0.67 15.5061 2 16.3717 3.5 16.7094V17.4167C3.5 18.2928 4.17 19 5 19C5.83 19 6.5 18.2928 6.5 17.4167V16.7306C8.45 16.34 10 15.1472 10 12.9833C10 9.98556 7.57 8.96167 5.3 8.33889Z" fill="#16151C"/>
</svg>
